# xmcd
#
# Track frame offsets:
#	150
#	13593
#	24776
#	36383
#	49449
#	59784
#	73267
#	84694
#	95800
#	108172
#
# Disc length: 1624 seconds
#
# Revision: 0
# Processed by: cddbd v1.5.2PL0 Copyright (c) Steve Scherf et al.
# Submitted via: dBpowerAMP V4.0
#
DISCID=8d06560a
DTITLE=Freddy Weller - Greatest Hits
DYEAR=1999
DGENRE=Country
TTITLE0=Games People Play
TTITLE1=The Promised Land
TTITLE2=Indian Lake
TTITLE3=She Loves Me Right Out Of My Mind
TTITLE4=The Roadmaster
TTITLE5=The Perfect Stranger
TTITLE6=Another Night Of Love
TTITLE7=Down In The Boondocks
TTITLE8=These Are Not My People
TTITLE9=Lonely Women Make Good Lovers
EXTD=
EXTT0=
EXTT1=
EXTT2=
EXTT3=
EXTT4=
EXTT5=
EXTT6=
EXTT7=
EXTT8=
EXTT9=
PLAYORDER=
